<svg xmlns="http://www.w3.org/2000/svg" xmlns:xlink="http://www.w3.org/1999/xlink" viewBox="0 0 107 81" fill="#fff" fill-rule="evenodd" stroke="#000" stroke-linecap="round" stroke-linejoin="round"><use xlink:href="#A" x=".5" y=".5"/><symbol id="A" overflow="visible"><path d="M56.431 21.652l-13.645-7.749-13.414 7.749v.228l13.414 7.749 13.645-7.749v-.228h0zm-12.257 10.94v15.271l13.645-7.749V24.843l-13.645 7.749h0zm-2.544 0l-13.645-7.749v15.271l13.645 7.749V32.592h0zm59.438 10.257c-10.639 4.786-12.72-4.786-17.346-4.786s-6.707 9.573-17.346 4.786c-2.312-1.14-3.931.912-3.931 2.963C62.445 74.302 83.722 80 83.722 80S105 74.302 105 45.812c0-2.051-1.388-4.331-3.932-2.963zM67.995 74.758c-13.414-.228-15.264-1.595-12.72-10.94h6.013c-.925-2.051-1.619-4.331-2.081-6.838h-52.5l.231-50.37 74.009.228V33.96c.925-.228 1.619-.456 2.775-.456a8.07 8.07 0 0 1 4.163 1.14V4.559C87.885 2.051 85.11 0 82.566 0H4.857C2.313 0 0 2.051 0 4.786v54.245c0 2.507 2.081 5.014 4.857 5.014h26.597c2.775 10.029 1.619 10.94-15.264 10.94V80h55.506v-1.596c-1.156-1.14-2.544-2.279-3.7-3.647z" fill="#2a3282" stroke="none"/></symbol></svg>